<?xml version="1.0" encoding="UTF-8" standalone="yes"?>
<svg version="1.1" id="Layer_1" xmlns:x="&amp;ns_extend;" xmlns:i="&amp;ns_ai;" xmlns:graph="&amp;ns_graphs;" xmlns="http://www.w3.org/2000/svg" xmlns:xlink="http://www.w3.org/1999/xlink" x="0px" y="0px" viewBox="0 0 309.515 315" style="enable-background:new 0 0 309.515 315;" xml:space="preserve">
      <style type="text/css">.st0{fill:#0E256B;}	.st1{fill:#CAE0FF;}	.st2{fill:#00F0BE;}	.st3{fill:#3192F4;}</style>
    <metadata>
              <sfw>
                      <slices/>
            <sliceSourceBounds bottomLeftOrigin="true" height="315" width="309.514" x="0" y="0"/>
                  </sfw>
          </metadata>
    <g id="color_index_3" fill="rgba(14, 37, 107, 1)">
              <path d="M299.957,197.49l-12.913,54.053l-6.065-16.565c-4.809,12.115-11.279,21.413-19.891,28.957l-31.37,27.587&#x9;&#x9;l1.043-10.435c-1.936,1.567-3.581,2.971-5.609,4.239l-30.391,18.978l2.804-18.717c-9.395,4.01-19.113,7.171-31.043,9.261&#x9;&#x9;l-11.764,1.826l-11.779-1.696c-11.93-2.09-21.648-5.055-31.043-9.065l2.674,18.391l-30.652-19.239&#x9;&#x9;c-2.028-1.268-3.086-2.019-5.022-3.587l1.174,10.5l-31.891-27.522c-8.673-7.605-14.805-16.255-19.63-28.5l-6.326,16.174&#x9;&#x9;L8.826,197.804c-11.086-47.637,4.31-85.955,12.76-102.326c-8.45-16.286-15.257-43.85-12.63-65.152&#x9;&#x9;c2.197-17.83,16.291-25.043,26.739-25.043c13.813,0,29.072,10.617,35.087,15.196c10.233,5.846,14.898,6.752,16.957,6.913&#x9;&#x9;l0.913-0.587c20.872-11.592,49.479-14.935,63-14.935c1.244,0,2.099,0.143,3.106,0.196c1.006-0.054,2.367-0.196,3.612-0.196&#x9;&#x9;c13.528,0,41.997,3.009,62.87,14.609l0.652,0.391c2.059-0.161,7.05-1.002,17.283-6.848c6.015-4.579,21.144-14.739,34.957-14.739&#x9;&#x9;c10.448,0,24.673,7.082,26.87,24.913c2.627,21.303-4.592,49.062-13.043,65.348C296.407,111.913,311.042,149.861,299.957,197.49z"/>
          </g>
    <g id="color_index_2" fill="rgba(202, 224, 255, 1)">
              <path d="M29.064,48.548c0.492-3.634,1.49-7.198,3.111-10.609c0.031-0.069,0.077-0.146,0.131-0.223&#x9;&#x9;c0.008-0.015,0.023-0.031,0.031-0.046c0.307-0.507,0.661-0.937,1.045-1.291c0.069-0.077,0.138-0.146,0.215-0.207&#x9;&#x9;c0.776-0.676,1.675-1.114,2.643-1.39c2.043-0.584,4.371-0.399,6.392-0.038c1.813,0.323,4.609,1.291,6.222,2.174&#x9;&#x9;c0.837,0.461,1.644,0.96,2.428,1.506c0.837,0.584,1.652,1.206,2.435,1.859l2.589,2.159c-3.234,0.868-6.315,2.335-8.996,4.34&#x9;&#x9;c2.666-0.837,5.477-1.321,8.266-1.122c2.789,0.2,5.57,1.099,7.767,2.827l0.008-0.169l3.48,2.904c-0.008,0-0.015,0.008-0.015,0.008&#x9;&#x9;l-0.186,0.13c1.944-0.937,3.611-1.682,4.755-2.182c0.1-0.046,0.207-0.085,0.307-0.131c0.177-0.077,0.338-0.146,0.484-0.207&#x9;&#x9;c0.115-0.046,0.23-0.1,0.338-0.138c0.123-0.054,0.231-0.1,0.307-0.131c0.069-0.031,0.131-0.061,0.2-0.084&#x9;&#x9;c9.203-3.749,17.692-5.831,23.269-6.922c-6.53,0.814-16.478,1.414-23.577-1.091c-11.055-3.903-25.067-18.253-38.672-17.2&#x9;&#x9;c-1.037,0.077-2.043,0.438-2.896,1.045c-0.054,0.038-0.107,0.077-0.154,0.115c-0.883,0.676-1.605,1.629-2.197,2.727&#x9;&#x9;c-1.321,2.412-2.021,5.516-2.427,7.989c-0.054,0.323-0.108,0.653-0.154,0.976c-1.329,9.557,1.091,19.275,3.634,28.616&#x9;&#x9;C28.703,59.334,28.334,53.856,29.064,48.548z"/>
        <path d="M94.683,209.516c0.023-0.115,0.054-0.23,0.084-0.346c-0.876,2.75-5.731,18.852-5.308,38.273&#x9;&#x9;c0.154,7.436,1.091,15.357,3.311,23.208c-14.419-13.321-29.507-35.776-31.727-50.326c-2.581,10.094-3.088,20.68-1.644,30.998&#x9;&#x9;c-27.456-31.581-22.97-71.375-22.97-71.375c-9.633,5.139-10.594,13.997-10.594,13.997c-8.881-32.411-2.212-53.237,5.178-67.38&#x9;&#x9;c3.296-6.307,6.737-11.285,9.011-15.372c0.461-0.837,0.914-1.667,1.337-2.489v19.49c0,25.697,20.826,46.523,46.523,46.523h17.362&#x9;&#x9;c4.271,0,8.427-0.53,12.391-1.521C108.841,180.57,99.684,192.031,94.683,209.516z"/>
        <path d="M179.986,171.489c27.51,27.003,27.364,46.592,25.866,59.153c-0.069,0.423-0.131,0.86-0.177,1.306&#x9;&#x9;c-0.008,0.069-0.015,0.138-0.023,0.2c-0.146,1.275-0.399,2.481-0.737,3.611c-0.653,2.228-1.644,4.187-2.896,5.908&#x9;&#x9;c0-0.131-0.008-0.269-0.015-0.399c-0.284-4.878-2.189-9.649-5.347-13.382c5.754,24.66-16.294,23.285-23.054,20.696h-0.008&#x9;&#x9;c-15.718-8.335-14.88-25.728-13.659-33.279c0.184-0.169,0.369-0.346,0.553-0.538c2.159-2.12,3.849-4.717,4.886-7.628&#x9;&#x9;c0.507-1.413,1.636-2.55,3.879-2.75c6.568-0.584,5.892,6.929,5.892,6.929c10.194-4.755,4.079-12.007,4.079-12.007&#x9;&#x9;c-7.237-10.079-23.362-9.349-24.414-9.295c-1.045-0.054-17.177-0.784-24.406,9.295c0,0-6.115,7.252,4.079,12.007&#x9;&#x9;c0,0-0.684-7.513,5.885-6.929c2.251,0.2,3.372,1.337,3.88,2.75c0.906,2.527,2.297,4.824,4.064,6.776&#x9;&#x9;c0.023,0.131,0.054,0.269,0.077,0.415c1.183,6.392,2.696,22.793-10.064,32.112c-0.031,0.023-0.054,0.046-0.084,0.061&#x9;&#x9;c-0.684,0.453-1.36,0.906-2.028,1.344c-0.092,0.054-0.184,0.108-0.284,0.169c-0.138,0.077-0.277,0.154-0.415,0.238&#x9;&#x9;c-6.929,3.618-29.284,3.526-23.938-20.365c-3.157,3.734-5.063,8.504-5.347,13.382c-0.008,0.131-0.015,0.269-0.015,0.399&#x9;&#x9;c-1.252-1.721-2.243-3.68-2.896-5.908c-0.338-1.129-0.592-2.335-0.737-3.611c-0.008-0.061-0.015-0.131-0.023-0.2&#x9;&#x9;c-0.046-0.446-0.108-0.883-0.177-1.306c-1.536-12.891-1.775-33.079,27.971-61.181l0.031-0.031c1.767-1.667,3.634-3.357,5.616-5.078&#x9;&#x9;c1.275-1.106,2.596-2.228,3.964-3.349c0.015-0.015,0.038-0.031,0.054-0.054c0.054-0.046,0.115-0.092,0.169-0.138&#x9;&#x9;c-0.008,0-0.015,0.008-0.031,0.008c6.538-6.169,11.431-14.058,13.966-22.947c2.52,8.827,7.352,16.655,13.813,22.808&#x9;&#x9;c-0.015,0-0.023-0.008-0.031-0.008l0.161,0.138c1.467,1.206,2.873,2.405,4.233,3.595&#x9;&#x9;C175.069,166.818,177.627,169.177,179.986,171.489z"/>
        <path d="M47.683,95.198C54.121,80.694,60.651,67.05,85.61,50.034c5.232-3.565,10.479-6.445,15.61-8.765&#x9;&#x9;c0,0,0.008,0,0.015,0c10.678-4.824,20.88-7.229,29.461-8.351c6.576-0.86,13.16,2.043,16.724,7.628&#x9;&#x9;c0.169,0.261,0.33,0.522,0.492,0.799c1.729,2.95,2.789,6.238,3.257,9.626l1.69,12.046l1.252,8.965c0-0.177,0-0.353,0.008-0.522&#x9;&#x9;c0-0.177,0.008-0.346,0.008-0.522l0.015-0.061l1.921-9.833l2.021-10.371c0.891-4.571,2.973-8.858,6.207-12.207&#x9;&#x9;c0.062-0.061,0.123-0.123,0.177-0.184c3.995-4.049,9.71-5.9,15.326-5.04c8.082,1.237,17.446,3.618,27.21,8.02l0.008,0.008&#x9;&#x9;c5.132,2.32,10.379,5.193,15.61,8.765c24.959,17.016,31.489,30.66,37.927,45.164L47.683,95.198L47.683,95.198z"/>
        <path d="M282.397,193.944c0,0-0.96-8.858-10.594-13.997c0,0,4.486,39.794-22.97,71.375&#x9;&#x9;c1.444-10.317,0.937-20.903-1.644-30.998c-2.22,14.55-17.308,37.005-31.727,50.326c2.32-8.189,3.234-16.455,3.334-24.168&#x9;&#x9;c0.238-18.99-4.471-34.608-5.331-37.312c0.031,0.115,0.062,0.23,0.085,0.346c-4.986-17.446-14.143-28.908-22.954-36.321&#x9;&#x9;c3.964,0.991,8.112,1.521,12.391,1.521h17.362c25.697,0,46.523-20.826,46.523-46.523v-19.49c0.423,0.822,0.876,1.652,1.337,2.489&#x9;&#x9;c1.997,3.588,4.894,7.867,7.805,13.137c0.008,0.008,0.008,0.008,0.008,0.008C283.841,138.494,291.761,159.782,282.397,193.944z"/>
        <path d="M137.773,261.241c-2.522,1.128-4.858,2.491-6.613,4.12c0,0,6.998,11.331,23.592,13.82h0.008&#x9;&#x9;c16.594-2.489,23.592-13.82,23.592-13.82c-1.753-1.629-4.088-2.991-6.607-4.118C160.975,256.423,148.544,256.424,137.773,261.241z"/>
        <path d="M235.051,48.571c0.077,0.031,0.184,0.077,0.307,0.131c0.107,0.038,0.223,0.092,0.338,0.138&#x9;&#x9;c0.146,0.061,0.307,0.131,0.484,0.207c0.1,0.046,0.207,0.085,0.307,0.131c1.145,0.499,2.812,1.245,4.755,2.182l-0.184-0.131&#x9;&#x9;c0,0-0.008-0.008-0.015-0.008l3.48-2.904l0.008,0.169c2.197-1.728,4.978-2.627,7.767-2.827s5.6,0.284,8.266,1.122&#x9;&#x9;c-2.681-2.005-5.762-3.472-8.996-4.34l2.589-2.159c0.784-0.653,1.598-1.275,2.435-1.859c0.784-0.545,1.59-1.045,2.428-1.506&#x9;&#x9;c1.613-0.883,4.41-1.851,6.222-2.174c2.021-0.361,4.348-0.545,6.392,0.038c0.968,0.277,1.867,0.714,2.643,1.39&#x9;&#x9;c0.077,0.061,0.146,0.131,0.215,0.207c0.384,0.353,0.737,0.784,1.045,1.291c0.008,0.015,0.023,0.031,0.031,0.046&#x9;&#x9;c0.054,0.077,0.1,0.154,0.131,0.223c1.621,3.411,2.62,6.975,3.111,10.609c0.73,5.308,0.361,10.786-0.784,16.194&#x9;&#x9;c2.543-9.342,4.963-19.059,3.634-28.616c-0.046-0.323-0.1-0.653-0.154-0.976c-0.407-2.474-1.106-5.577-2.428-7.989&#x9;&#x9;c-0.592-1.099-1.314-2.051-2.197-2.727c-0.046-0.038-0.1-0.077-0.154-0.115c-0.853-0.607-1.859-0.968-2.896-1.045&#x9;&#x9;c-13.605-1.052-27.618,13.298-38.672,17.2c-7.098,2.504-17.047,1.905-23.577,1.091c5.577,1.091,14.066,3.173,23.269,6.922&#x9;&#x9;C234.921,48.51,234.982,48.54,235.051,48.571z"/>
          </g>
    <g id="color_index_1" fill="rgba(0, 240, 190, 1)">
              <g>
                      <path d="M114.601,126.194h-9.034v-9.034c0-2.399-1.945-4.343-4.343-4.343c-2.399,0-4.344,1.945-4.344,4.343v9.034&#x9;&#x9;&#x9;h-9.034c-2.399,0-4.344,1.945-4.344,4.343l0,0c0,2.399,1.945,4.343,4.344,4.343h9.034v9.034c0,2.399,1.945,4.343,4.344,4.343&#x9;&#x9;&#x9;s4.343-1.945,4.343-4.343v-9.034h9.034c2.399,0,4.343-1.945,4.343-4.343l0,0C118.945,128.139,117,126.194,114.601,126.194z"/>
            <path d="M207.595,115.043c-2.817,0-5.1,2.283-5.1,5.1s2.283,5.1,5.1,5.1s5.1-2.283,5.1-5.1&#x9;&#x9;&#x9;C212.695,117.327,210.412,115.043,207.595,115.043z"/>
            <path d="M207.595,138.94c-2.817,0-5.1,2.283-5.1,5.1s2.283,5.1,5.1,5.1s5.1-2.283,5.1-5.1&#x9;&#x9;&#x9;C212.695,141.224,210.412,138.94,207.595,138.94z"/>
            <path d="M219.544,126.992c-2.817,0-5.1,2.283-5.1,5.1s2.283,5.1,5.1,5.1s5.1-2.283,5.1-5.1&#x9;&#x9;&#x9;C224.644,129.275,222.361,126.992,219.544,126.992z"/>
            <circle cx="195.647" cy="132.092" r="5.1"/>
                  </g>
        <path d="M266.874,94.853c0,12.459,1.024,25.386-0.217,37.786c-1.072,10.71-5.96,21.46-13.855,28.869&#x9;&#x9;c1.428-1.956,2.724-4.001,3.847-6.148c0.138-0.269,0.277-0.538,0.407-0.807c0.484-0.968,0.937-1.959,1.352-2.973&#x9;&#x9;c0.169-0.399,0.33-0.799,0.484-1.206c3.568-9.327,3.019-19.122,3.019-28.907c0-6.689,0-13.378,0-20.067&#x9;&#x9;c0-0.027,0.002-0.545,0-0.545l-149.966-5.769L266.874,94.853z"/>
          </g>
    <g id="color_index_0" fill="rgba(49, 146, 244, 1)">
              <path d="M235.383,164.839c-4.64,1.913-9.718,2.965-15.034,2.965h-17.362c-19.505,0-36.867-13.09-42.221-31.835&#x9;&#x9;l-3.495-12.245l3.757-13.16l6.653,23.277c5.354,18.744,22.716,31.835,42.221,31.835h17.362&#x9;&#x9;C230.044,165.676,232.756,165.384,235.383,164.839z"/>
        <path d="M178.352,265.362c0,0-1.375,2.22-4.34,4.909c-0.73-0.392-1.49-0.768-2.266-1.114&#x9;&#x9;c-10.77-4.824-23.2-4.817-33.971,0c-0.776,0.346-1.536,0.714-2.266,1.114c-2.973-2.689-4.348-4.909-4.348-4.909&#x9;&#x9;c1.752-1.629,4.094-2.996,6.614-4.118c10.77-4.824,23.2-4.824,33.971,0C174.265,262.374,176.6,263.733,178.352,265.362z"/>
        <path d="M92.773,270.647c-14.419-13.321-29.507-35.776-31.727-50.326c-2.581,10.094-3.088,20.68-1.644,30.998&#x9;&#x9;c-27.456-31.581-22.97-71.375-22.97-71.375c-9.633,5.139-10.594,13.997-10.594,13.997c-8.88-32.411-2.212-53.238,5.178-67.38&#x9;&#x9;c-3.895,17.654-6.407,35.86-0.768,52.8c1.475-8.412,5.57-16.348,11.554-22.44c-1.567,20.196,3.672,40.239,8.858,59.821&#x9;&#x9;c0.177-11.946,3.979-23.807,10.786-33.625c2.942,23.5,13.713,45.24,28.017,64.323C89.615,254.876,90.552,262.796,92.773,270.647z"/>
        <path d="M282.399,193.941c0,0-0.96-8.858-10.594-13.997c0,0,4.486,39.794-22.97,71.375&#x9;&#x9;c1.444-10.317,0.937-20.903-1.644-30.998c-2.22,14.55-17.308,37.005-31.727,50.326c2.32-8.189,3.234-16.455,3.334-24.168&#x9;&#x9;c13.943-18.852,24.406-40.247,27.295-63.363c6.806,9.818,10.617,21.679,10.786,33.625c5.193-19.582,10.425-39.625,8.858-59.821&#x9;&#x9;c5.992,6.092,10.079,14.028,11.562,22.44c5.869-17.654,2.896-36.682-1.275-55.027C283.844,138.491,291.764,159.778,282.399,193.941&#x9;&#x9;z"/>
        <path d="M148.391,214.322c1.183,6.392,2.696,22.793-10.064,32.111c-0.031,0.023-0.054,0.046-0.084,0.061&#x9;&#x9;c-0.684,0.453-1.36,0.906-2.028,1.344c-0.092,0.054-0.184,0.108-0.284,0.169c-0.138,0.077-0.277,0.154-0.415,0.238&#x9;&#x9;c-6.929,3.618-29.284,3.526-23.938-20.365c-3.157,3.734-5.063,8.504-5.347,13.382c-0.008,0.131-0.015,0.269-0.015,0.399&#x9;&#x9;c-1.252-1.721-2.243-3.68-2.896-5.908c-0.338-1.129-0.592-2.335-0.737-3.611c-0.008-0.061-0.015-0.131-0.023-0.2&#x9;&#x9;c-0.046-0.446-0.108-0.883-0.177-1.306c-1.536-12.891-1.775-33.079,27.971-61.181l0.031-0.031l0.138-0.108&#x9;&#x9;c-11.792,15.011-22.417,32.388-22.555,51.471c1.636-3.457,3.987-6.576,6.86-9.111c-1.79,5.946-0.822,12.729,2.842,17.738&#x9;&#x9;s10.041,7.997,16.202,7.267c6.169-0.73,11.784-5.316,13.405-11.308C148.238,221.827,147.877,217.932,148.391,214.322z"/>
        <path d="M205.854,230.639c-0.069,0.423-0.131,0.86-0.177,1.306c-0.008,0.069-0.015,0.138-0.023,0.2&#x9;&#x9;c-0.146,1.275-0.399,2.481-0.737,3.611c-0.653,2.228-1.644,4.187-2.896,5.908c0-0.131-0.008-0.269-0.015-0.399&#x9;&#x9;c-0.284-4.878-2.189-9.649-5.347-13.382c5.754,24.66-16.294,23.285-23.054,20.696h-0.008c-15.718-8.335-14.88-25.728-13.659-33.279&#x9;&#x9;c0.184-0.169,0.691,6.668,1.613,10.079c1.613,5.992,7.237,10.578,13.398,11.308s12.545-2.259,16.209-7.267&#x9;&#x9;c3.664-5.009,4.625-11.792,2.843-17.738c2.873,2.535,5.216,5.654,6.86,9.111c-0.131-18.168-9.779-34.8-20.873-49.304&#x9;&#x9;C207.498,198.489,207.352,218.078,205.854,230.639z"/>
        <path d="M152.862,63.014c-7.897-26.119-50.656-21.848-51.624-21.748c10.678-4.824,20.88-7.229,29.461-8.351&#x9;&#x9;c6.576-0.86,13.16,2.043,16.724,7.628c0.169,0.261,0.33,0.522,0.492,0.799c1.728,2.95,2.789,6.238,3.257,9.626L152.862,63.014z"/>
        <path d="M207.014,41.265c0,0-41.438-4.433-50.948,19.774l2.021-10.371c0.891-4.571,2.973-8.858,6.207-12.207&#x9;&#x9;c0.062-0.061,0.123-0.123,0.177-0.184c3.995-4.049,9.71-5.9,15.326-5.04c8.082,1.237,17.446,3.618,27.21,8.02L207.014,41.265z"/>
        <path d="M125.259,162.941c-6.069,3.119-12.891,4.863-20.012,4.863H87.885c-21.84,0-39.609-17.769-39.609-39.609&#x9;&#x9;v-26.089h7.744v22.985c0,21.84,17.769,39.617,39.617,39.617h17.362C117.216,164.708,121.341,164.093,125.259,162.941z"/>
        <path d="M66.827,51.225c-0.008,0-0.015,0.008-0.015,0.008c-6.177,2.965-12.453,6.714-18.207,11.431&#x9;&#x9;c-1.099-4.602-7.436-29.307-15.226-26.281c0.069-0.077,0.14-0.157,0.217-0.218c0.776-0.676,1.678-1.113,2.646-1.389&#x9;&#x9;c2.043-0.584,4.362-0.4,6.383-0.039c1.813,0.323,4.624,1.297,6.238,2.18c0.837,0.461,1.635,0.955,2.419,1.501&#x9;&#x9;c0.837,0.584,1.655,1.206,2.438,1.859l2.6,2.166c-3.234,0.868-6.331,2.338-9.012,4.343c2.666-0.837,5.477-1.321,8.266-1.122&#x9;&#x9;c2.789,0.2,5.57,1.099,7.767,2.827l0.008-0.169L66.827,51.225z"/>
        <path d="M274.492,36.383c-7.79-3.027-14.127,21.679-15.226,26.281c-5.754-4.717-12.03-8.466-18.207-11.431&#x9;&#x9;c0,0-0.008-0.008-0.015-0.008l3.48-2.904l0.007,0.169c2.197-1.728,4.978-2.627,7.767-2.827s5.6,0.284,8.266,1.122&#x9;&#x9;c-2.681-2.005-5.773-3.474-9.007-4.342l2.605-2.178c0.783-0.653,1.592-1.271,2.429-1.855c0.784-0.545,1.598-1.046,2.435-1.507&#x9;&#x9;c1.613-0.883,4.42-1.851,6.233-2.174c2.02-0.361,4.351-0.531,6.395,0.052c0.968,0.277,1.856,0.709,2.632,1.385&#x9;&#x9;C274.361,36.23,274.423,36.306,274.492,36.383z"/>
        <path d="M293.935,95.666c8.097-17.147,14.535-44.357,11.854-66.12C303.269,9.134,288.043,0,274.062,0&#x9;&#x9;c-14.98,0-30.114,9.68-38.004,15.641c-6.868,3.887-11.085,5.285-13.213,5.792c-21.856-11.692-50.826-14.842-64.7-14.842&#x9;&#x9;c-1.214,0-2.351,0.023-3.388,0.077c-1.037-0.054-2.174-0.077-3.388-0.077c-13.866,0-42.844,3.15-64.699,14.842&#x9;&#x9;c-2.128-0.499-6.345-1.905-13.213-5.792C65.567,9.68,50.433,0,35.453,0C21.472,0,6.238,9.134,3.726,29.546&#x9;&#x9;C1.045,51.309,7.482,78.52,15.579,95.666C6,115.279-6.661,152.583,4.141,198.991l16.939,72.658l8.205-22.371&#x9;&#x9;c4.294,7.267,9.457,13.559,15.434,18.798l41.998,36.798l-1.145-12.453L121.601,315l-2.996-21.003&#x9;&#x9;c7.252,2.397,15.103,4.348,23.469,5.808l12.683,1.859l12.514-1.828l0.169-0.031c8.366-1.46,16.217-3.411,23.469-5.808L187.906,315&#x9;&#x9;l36.037-22.578l-1.145,12.453l41.998-36.798c5.884-5.162,10.993-11.354,15.257-18.491l8.235,22.854l17.085-73.449&#x9;&#x9;C316.175,152.583,303.515,115.279,293.935,95.666z M299.39,197.593l-12.376,53.191l-6.092-16.901&#x9;&#x9;c-4.809,12.115-11.569,22.025-20.181,29.569l-30.406,26.649l0.922-10.048c-1.936,1.567-3.926,2.996-5.954,4.264l-29.438,18.445&#x9;&#x9;l2.589-18.176c-9.395,4.01-20.143,7.075-32.073,9.165l-11.623,1.705l-11.623-1.705c-11.93-2.09-22.678-5.155-32.073-9.165&#x9;&#x9;l2.589,18.176l-29.438-18.445c-2.028-1.268-4.018-2.696-5.954-4.264l0.922,10.048l-30.414-26.649&#x9;&#x9;c-8.673-7.605-15.464-17.6-20.289-29.845l-6.084,16.609l-12.268-52.615C-0.96,149.964,13.997,112.06,22.447,95.689&#x9;&#x9;c-8.45-16.286-15.249-44.088-12.622-65.39c2.197-17.83,15.18-24.153,25.628-24.153c13.813,0,28.601,10.056,34.616,14.635&#x9;&#x9;c10.233,5.846,15.656,6.899,17.715,7.06l0.737-0.415c20.872-11.592,49.327-14.688,62.848-14.688c1.244,0,2.381,0.031,3.388,0.084&#x9;&#x9;c1.006-0.054,2.143-0.084,3.388-0.084c13.528,0,41.983,3.096,62.856,14.696l0.73,0.407c2.059-0.161,7.482-1.214,17.715-7.06&#x9;&#x9;c6.015-4.579,20.803-14.635,34.616-14.635c10.448,0,23.431,6.322,25.628,24.153c2.627,21.303-4.171,49.105-12.622,65.391&#x9;&#x9;C295.518,112.06,310.475,149.964,299.39,197.593z"/>
          </g>
  </svg>